PathFileType	4	(X/Y/Z)	 static.trc
DataRate	CameraRate	NumFrames	NumMarkers	Units	OrigDataRate	OrigDataStartFrame	OrigNumFrames
200	200	7	43	m	200	1	400
Frame#	Time	C7			LSH			RSH			MAN			RASI			LASI			HIPR			HIPL			RPSI			LPSI			COX			RTHI1			RTHI2			RTHI3			RTHI4			RLKN			RMKN			RSHA1			RSHA2			RSHA3			RSHA4			RLMAL			RMMAL			RHEEL			RMET5			RMET1			RTOE			LTHI1			LTHI2			LTHI3			LTHI4			LLKN			LMKN			LSHA1			LSHA2			LSHA3			LSHA4			LLMAL			LMMAL			LHEEL			LMET5			LMET1			LTOE			
		X1	Y1	Z1	X2	Y2	Z2	X3	Y3	Z3	X4	Y4	Z4	X5	Y5	Z5	X6	Y6	Z6	X7	Y7	Z7	X8	Y8	Z8	X9	Y9	Z9	X10	Y10	Z10	X11	Y11	Z11	X12	Y12	Z12	X13	Y13	Z13	X14	Y14	Z14	X15	Y15	Z15	X16	Y16	Z16	X17	Y17	Z17	X18	Y18	Z18	X19	Y19	Z19	X20	Y20	Z20	X21	Y21	Z21	X22	Y22	Z22	X23	Y23	Z23	X24	Y24	Z24	X25	Y25	Z25	X26	Y26	Z26	X27	Y27	Z27	X28	Y28	Z28	X29	Y29	Z29	X30	Y30	Z30	X31	Y31	Z31	X32	Y32	Z32	X33	Y33	Z33	X34	Y34	Z34	X35	Y35	Z35	X36	Y36	Z36	X37	Y37	Z37	X38	Y38	Z38	X39	Y39	Z39	X40	Y40	Z40	X41	Y41	Z41	X42	Y42	Z42	X43	Y43	Z43	
1	0.0050	-0.319462	1.508858	-0.545164	-0.247226	1.463584	-0.749287	-0.218497	1.458712	-0.354173	-0.182396	1.430880	-0.554387	-0.167968	0.987353	-0.415103	-0.177583	0.977867	-0.665643	-0.251836	1.047111	-0.374247	-0.251709	1.020546	-0.701178	-0.349379	1.045644	-0.480641	-0.354595	1.037646	-0.578293	-0.357480	1.038494	-0.528779	-0.277801	0.750340	-0.350863	-0.273127	0.689976	-0.355372	-0.208409	0.691750	-0.353965	-0.204599	0.752936	-0.349049	-0.277881	0.486827	-0.372066	-0.270834	0.466535	-0.488237	-0.329821	0.300145	-0.346370	-0.337027	0.258709	-0.353774	-0.276830	0.296591	-0.358296	-0.276655	0.256774	-0.362098	-0.340588	0.075297	-0.383185	-0.316342	0.077217	-0.467825	-0.390495	0.051257	-0.436621	-0.229990	0.031999	-0.350213	-0.179030	0.045125	-0.429772	-0.154039	0.036003	-0.431962	-0.290519	0.755238	-0.722491	-0.289292	0.694226	-0.723163	-0.223521	0.688695	-0.726200	-0.217629	0.748472	-0.728415	-0.290100	0.482035	-0.709717	-0.295106	0.467922	-0.594967	-0.351298	0.295946	-0.726805	-0.355298	0.256299	-0.719679	-0.294123	0.255445	-0.718670	-0.297243	0.298461	-0.726524	-0.338727	0.074952	-0.703123	-0.313399	0.081684	-0.617888	-0.391252	0.053140	-0.649705	-0.227401	0.030697	-0.728173	-0.181804	0.042208	-0.642825	-0.152111	0.034594	-0.649717	
2	0.0100	-0.319454	1.508855	-0.545163	-0.247255	1.463560	-0.749280	-0.218501	1.458679	-0.354168	-0.182418	1.430862	-0.554384	-0.167967	0.987341	-0.415108	-0.177601	0.977865	-0.665646	-0.251838	1.047079	-0.374238	-0.251693	1.020518	-0.701174	-0.349407	1.045639	-0.480608	-0.354613	1.037647	-0.578309	-0.357482	1.038491	-0.528761	-0.277808	0.750342	-0.350848	-0.273140	0.689998	-0.355323	-0.208418	0.691747	-0.353965	-0.204623	0.752938	-0.349033	-0.277887	0.486838	-0.372053	-0.270837	0.466547	-0.488193	-0.329800	0.300160	-0.346326	-0.337027	0.258718	-0.353772	-0.276869	0.296528	-0.358389	-0.276667	0.256773	-0.362100	-0.340577	0.075294	-0.383164	-0.316333	0.077216	-0.467806	-0.390498	0.051240	-0.436626	-0.229990	0.032007	-0.350204	-0.179028	0.045112	-0.429813	-0.154015	0.036007	-0.431964	-0.290547	0.755263	-0.722570	-0.289287	0.694186	-0.723164	-0.223568	0.688720	-0.726231	-0.217642	0.748518	-0.728293	-0.290096	0.482063	-0.709743	-0.295076	0.467887	-0.594952	-0.351301	0.295952	-0.726863	-0.355319	0.256289	-0.719667	-0.294133	0.255460	-0.718668	-0.297244	0.298449	-0.726526	-0.338766	0.074862	-0.702918	-0.313372	0.081679	-0.617903	-0.391259	0.053133	-0.649710	-0.227408	0.030686	-0.728182	-0.181801	0.042198	-0.642834	-0.152125	0.034584	-0.649731	
3	0.0150	-0.319442	1.508852	-0.545158	-0.247282	1.463536	-0.749274	-0.218494	1.458637	-0.354157	-0.182442	1.430841	-0.554383	-0.167960	0.987320	-0.415110	-0.177605	0.977843	-0.665629	-0.251829	1.047038	-0.374251	-0.251637	1.020524	-0.701162	-0.349429	1.045636	-0.480559	-0.354639	1.037646	-0.578332	-0.357478	1.038486	-0.528736	-0.277815	0.750343	-0.350843	-0.273154	0.690031	-0.355254	-0.208428	0.691744	-0.353964	-0.204651	0.752943	-0.349019	-0.277898	0.486841	-0.372049	-0.270841	0.466551	-0.488184	-0.329759	0.300195	-0.346243	-0.337027	0.258721	-0.353772	-0.276926	0.296420	-0.358540	-0.276671	0.256766	-0.362107	-0.340568	0.075279	-0.383124	-0.316337	0.077229	-0.467775	-0.390526	0.051219	-0.436642	-0.229985	0.032015	-0.350178	-0.179029	0.045079	-0.429884	-0.153989	0.036002	-0.431971	-0.290583	0.755321	-0.722708	-0.289297	0.694120	-0.723184	-0.223653	0.688761	-0.726295	-0.217720	0.748583	-0.728266	-0.290071	0.482098	-0.709750	-0.295018	0.467825	-0.594934	-0.351313	0.295962	-0.726947	-0.355349	0.256274	-0.719655	-0.294142	0.255489	-0.718654	-0.297252	0.298432	-0.726526	-0.338811	0.074806	-0.702837	-0.313325	0.081666	-0.617949	-0.391273	0.053120	-0.649717	-0.227414	0.030667	-0.728191	-0.181806	0.042182	-0.642856	-0.152145	0.034550	-0.649741	
4	0.0200	-0.319429	1.508848	-0.545151	-0.247309	1.463512	-0.749269	-0.218488	1.458594	-0.354144	-0.182463	1.430820	-0.554380	-0.167952	0.987302	-0.415111	-0.177610	0.977824	-0.665614	-0.251812	1.047006	-0.374250	-0.251587	1.020529	-0.701152	-0.349450	1.045632	-0.480515	-0.354664	1.037645	-0.578350	-0.357477	1.038481	-0.528712	-0.277822	0.750343	-0.350836	-0.273167	0.690060	-0.355193	-0.208437	0.691741	-0.353962	-0.204675	0.752947	-0.349005	-0.277909	0.486842	-0.372045	-0.270846	0.466556	-0.488174	-0.329723	0.300227	-0.346169	-0.337026	0.258725	-0.353771	-0.276976	0.296326	-0.358674	-0.276675	0.256760	-0.362113	-0.340561	0.075265	-0.383089	-0.316339	0.077243	-0.467748	-0.390551	0.051202	-0.436653	-0.229980	0.032023	-0.350154	-0.179031	0.045049	-0.429946	-0.153967	0.035998	-0.431976	-0.290617	0.755372	-0.722829	-0.289307	0.694062	-0.723198	-0.223730	0.688798	-0.726355	-0.217786	0.748640	-0.728237	-0.290051	0.482130	-0.709757	-0.294968	0.467771	-0.594918	-0.351325	0.295972	-0.727022	-0.355375	0.256261	-0.719645	-0.294150	0.255516	-0.718641	-0.297262	0.298418	-0.726522	-0.338850	0.074754	-0.702756	-0.313282	0.081655	-0.617990	-0.391285	0.053110	-0.649721	-0.227420	0.030649	-0.728198	-0.181810	0.042167	-0.642876	-0.152162	0.034519	-0.649750	
5	0.0250	-0.319414	1.508844	-0.545141	-0.247334	1.463487	-0.749265	-0.218479	1.458547	-0.354129	-0.182482	1.430800	-0.554376	-0.167941	0.987280	-0.415111	-0.177609	0.977796	-0.665591	-0.251789	1.046975	-0.374252	-0.251521	1.020549	-0.701142	-0.349467	1.045630	-0.480469	-0.354690	1.037645	-0.578364	-0.357475	1.038477	-0.528686	-0.277829	0.750343	-0.350833	-0.273181	0.690089	-0.355133	-0.208446	0.691739	-0.353959	-0.204697	0.752951	-0.348996	-0.277921	0.486838	-0.372046	-0.270852	0.466561	-0.488176	-0.329687	0.300261	-0.346089	-0.337025	0.258727	-0.353769	-0.277024	0.296232	-0.358806	-0.276674	0.256750	-0.362121	-0.340557	0.075249	-0.383055	-0.316343	0.077261	-0.467721	-0.390582	0.051187	-0.436661	-0.229973	0.032031	-0.350130	-0.179035	0.045017	-0.430008	-0.153948	0.035989	-0.431980	-0.290650	0.755426	-0.722945	-0.289323	0.694010	-0.723215	-0.223816	0.688836	-0.726427	-0.217865	0.748693	-0.728247	-0.290028	0.482159	-0.709756	-0.294921	0.467718	-0.594903	-0.351339	0.295980	-0.727089	-0.355400	0.256250	-0.719638	-0.294157	0.255543	-0.718625	-0.297282	0.298408	-0.726513	-0.338883	0.074724	-0.702734	-0.313239	0.081645	-0.618033	-0.391297	0.053100	-0.649725	-0.227425	0.030631	-0.728203	-0.181815	0.042153	-0.642897	-0.152176	0.034484	-0.649754	
6	0.0300	-0.319398	1.508840	-0.545126	-0.247360	1.463460	-0.749261	-0.218469	1.458494	-0.354112	-0.182502	1.430780	-0.554371	-0.167925	0.987264	-0.415106	-0.177614	0.977782	-0.665572	-0.251772	1.046949	-0.374250	-0.251477	1.020573	-0.701140	-0.349479	1.045627	-0.480438	-0.354711	1.037647	-0.578366	-0.357481	1.038475	-0.528666	-0.277834	0.750339	-0.350829	-0.273194	0.690107	-0.355100	-0.208455	0.691735	-0.353955	-0.204707	0.752952	-0.348989	-0.277935	0.486833	-0.372048	-0.270860	0.466568	-0.488177	-0.329665	0.300286	-0.346032	-0.337023	0.258728	-0.353766	-0.277051	0.296177	-0.358885	-0.276673	0.256742	-0.362127	-0.340554	0.075237	-0.383037	-0.316343	0.077282	-0.467703	-0.390613	0.051183	-0.436665	-0.229971	0.032038	-0.350113	-0.179040	0.044995	-0.430044	-0.153940	0.035982	-0.431980	-0.290678	0.755466	-0.723012	-0.289342	0.693984	-0.723218	-0.223877	0.688862	-0.726483	-0.217908	0.748718	-0.728254	-0.290015	0.482181	-0.709749	-0.294895	0.467685	-0.594889	-0.351353	0.295984	-0.727128	-0.355418	0.256245	-0.719634	-0.294161	0.255563	-0.718611	-0.297305	0.298410	-0.726495	-0.338900	0.074711	-0.702722	-0.313212	0.081645	-0.618065	-0.391306	0.053096	-0.649723	-0.227428	0.030619	-0.728205	-0.181822	0.042144	-0.642911	-0.152180	0.034463	-0.649750	
7	0.0350	-0.319383	1.508838	-0.545108	-0.247382	1.463433	-0.749255	-0.218463	1.458442	-0.354094	-0.182521	1.430763	-0.554364	-0.167913	0.987254	-0.415100	-0.177621	0.977772	-0.665559	-0.251740	1.046942	-0.374220	-0.251449	1.020593	-0.701140	-0.349490	1.045624	-0.480414	-0.354729	1.037649	-0.578360	-0.357487	1.038473	-0.528646	-0.277840	0.750335	-0.350826	-0.273204	0.690121	-0.355078	-0.208463	0.691732	-0.353952	-0.204713	0.752952	-0.348985	-0.277950	0.486832	-0.372049	-0.270870	0.466574	-0.488179	-0.329651	0.300303	-0.345992	-0.337021	0.258729	-0.353761	-0.277068	0.296141	-0.358936	-0.276672	0.256736	-0.362132	-0.340553	0.075228	-0.383027	-0.316342	0.077301	-0.467688	-0.390635	0.051182	-0.436661	-0.229969	0.032045	-0.350101	-0.179044	0.044980	-0.430068	-0.153936	0.035976	-0.431980	-0.290700	0.755495	-0.723053	-0.289361	0.693970	-0.723217	-0.223923	0.688881	-0.726524	-0.217942	0.748732	-0.728267	-0.290007	0.482197	-0.709742	-0.294880	0.467662	-0.594878	-0.351365	0.295987	-0.727153	-0.355432	0.256244	-0.719633	-0.294164	0.255577	-0.718600	-0.297326	0.298414	-0.726480	-0.338911	0.074707	-0.702724	-0.313191	0.081648	-0.618087	-0.391312	0.053093	-0.649719	-0.227431	0.030612	-0.728207	-0.181828	0.042138	-0.642920	-0.152180	0.034447	-0.649745	
